<?xml version="1.0" standalone="no"?>
<!DOCTYPE svg PUBLIC "-//W3C//DTD SVG 20010904//EN"
 "http://www.w3.org/TR/2001/REC-SVG-20010904/DTD/svg10.dtd">
<svg version="1.0" xmlns="http://www.w3.org/2000/svg"
 width="312.000000pt" height="312.000000pt" viewBox="0 0 312.000000 312.000000"
 preserveAspectRatio="xMidYMid meet">
<metadata>
Created by potrace 1.11, written by Peter Selinger 2001-2013
</metadata>
<g transform="translate(0.000000,312.000000) scale(0.100000,-0.100000)"
fill="#000000" stroke="none">
<path d="M0 1560 l0 -1560 1560 0 1560 0 0 1560 0 1560 -1560 0 -1560 0 0
-1560z m1655 1283 c4 -10 49 -142 102 -293 52 -151 114 -331 138 -400 24 -69
83 -237 130 -375 48 -137 106 -306 130 -375 50 -144 232 -671 277 -805 17 -49
35 -95 40 -102 5 -6 54 -14 113 -18 l105 -7 0 -39 0 -39 -447 2 -448 3 0 35 0
35 110 10 c89 8 110 13 108 25 -2 8 -45 143 -96 300 l-93 285 -379 0 -378 0
-13 -40 c-7 -22 -49 -152 -93 -289 -45 -138 -81 -255 -81 -262 0 -8 35 -14
110 -19 l110 -7 0 -39 0 -39 -262 2 -263 3 0 35 0 35 98 10 c69 7 101 14 107
25 7 13 790 2348 790 2356 0 2 18 4 39 4 28 0 41 -5 46 -17z"/>
<path d="M1432 2203 c-6 -15 -82 -244 -168 -508 -86 -264 -159 -486 -162 -493
-4 -11 58 -12 334 -6 187 4 341 8 343 10 2 2 -33 118 -78 256 -198 606 -243
744 -250 756 -6 10 -11 6 -19 -15z"/>
</g>
</svg>
